{"title":"Repo.Men.UNRATED.NODRM.Audio.AAC-HDLiTE (Kingdom-Release)","uid":5699372,"size":469492101,"categoryP":"other","categoryS":"other","magnet":"?xt=urn:btih:5b3dcb6884b8e89acb0cb297aeda6f64bb0dff9e&amp;dn=Repo.Men.UNRATED.NODRM.Audio.AAC-HDLiTE+%28Kingdom-Release%29&amp;tr=udp%3A%2F%2Ftracker.openbittorrent.com%3A80&amp;tr=udp%3A%2F%2Fopen.demonii.com%3A1337&amp;tr=udp%3A%2F%2Ftracker.coppersurfer.tk%3A6969&amp;tr=udp%3A%2F%2Fexodus.desync.com%3A6969","seeders":0,"leechers":1,"uploader":"xenl","files":6,"time":1279436940,"description":"Release name: Repo.Men.UNRATED.NODRM.Audio.AAC-HDLiTE (Kingdom-Release)\n\nRelease type: AAC Audio Tracks for Repo Men 2010 UNRATED with no Cinavia DRM protection.\n\nRelease info:\n\nRepo.Men.UNRATED.NODRM.Audio.5.1Ch.mp4 :: 336 MB (353,346,883 bytes)\n\nFormat : AAC\nFormat/Info : Advanced Audio Codec\nFormat version : Version 4\nFormat profile : LC\nFormat settings, SBR : No\nCodec ID : 40\nDuration : 1h 59mn\nBit rate mode : Variable\nBit rate : 392 Kbps\nMaximum bit rate : 555 Kbps\nChannel(s) : 6 channels\nChannel positions : Front: L C R, Rear: L R, LFE\nSampling rate : 48.0 KHz\nStream size : 336 MiB (100%)\n\n\nRepo.Men.UNRATED.NODRM.Audio.2Ch.mp4 - 110 MB (116,043,573 bytes)\n\nFormat : AAC\nFormat/Info : Advanced Audio Codec\nFormat version : Version 4\nFormat profile : LC\nFormat settings, SBR : No\nCodec ID : 40\nDuration : 1h 59mn\nBit rate mode : Variable\nBit rate : 128 Kbps\nMaximum bit rate : 176 Kbps\nChannel(s) : 2 channels\nChannel positions : L R\nSampling rate : 48.0 KHz\nStream size : 109 MiB (99%)\n\n\nRemux your BRRips and enjoy ;)\n &lt;a href=&quot;\nhttp://www.imdb.com/title/tt1053424/&quot; rel=&quot;nofollow&quot; target=&quot;_NEW&quot;&gt;\nhttp://www.imdb.com/title/tt1053424/&lt;/a&gt;","torrent":{"xt":"urn:btih:5b3dcb6884b8e89acb0cb297aeda6f64bb0dff9e","amp;dn":"Repo.Men.UNRATED.NODRM.Audio.AAC-HDLiTE+%28Kingdom-Release%29","amp;tr":["udp%3A%2F%2Ftracker.openbittorrent.com%3A80","udp%3A%2F%2Fopen.demonii.com%3A1337","udp%3A%2F%2Ftracker.coppersurfer.tk%3A6969","udp%3A%2F%2Fexodus.desync.com%3A6969"],"infoHash":"5b3dcb6884b8e89acb0cb297aeda6f64bb0dff9e","infoHashBuffer":{"type":"Buffer","data":[91,61,203,104,132,184,232,154,203,12,178,151,174,218,111,100,187,13,255,158]},"announce":[],"urlList":[]}}